# xmcd CD database file
# Copyright (C) 1995-1998 Ti Kan
#
# Track frame offsets:
#	150
#	14630
#	32790
#	47860
#	57275
#	75335
#	86615
#	106490
#	119785
#	132155
#	145612
#	158990
#	168780
#	179845
#	196967
#	206447
#	221027
#	241880
#	260472
#	271922
#	289650
#	303250
#	316140
#	328835
#	342955
#
# Disc length: 4682 seconds
#
# Revision: 1
# Processed by: cddbd v1.4b41PL1 Copyright (c) Steve Scherf et al.
# Submitted via: CDex 1.30
#
DISCID=71124819
DTITLE=Dwight Yoakam - dwightyoakamacoustic.net
DYEAR=2000
DGENRE=Country
TTITLE0=Bury Me
TTITLE1=1,000 Miles
TTITLE2=Little Sister
TTITLE3=Please, Please Baby
TTITLE4=It Won't Hurt
TTITLE5=I'll Be Gone
TTITLE6=Johnson's Love
TTITLE7=Little Ways
TTITLE8=This Drinkin' Will Kill Me
TTITLE9=Nothing's Changed Here
TTITLE10=Throughout All Time
TTITLE11=Sad, Sad Music
TTITLE12=It Only Hurts When I Cry
TTITLE13=Buenas Noches From A Lonely Room
TTITLE14=The Distance Between You And Me
TTITLE15=A Thousand Miles From Nowhere
TTITLE16=Two Doors Down
TTITLE17=Readin', Rightin', Rt.23
TTITLE18=If There Was A Way
TTITLE19=Fast As You
TTITLE20=Home For Sale
TTITLE21=A Long Way  Home
TTITLE22=Lonesome Roads
TTITLE23=Things Change
TTITLE24=Guitars, Cadillacs
EXTD=\nYEAR: 2000  ID3G:   2
EXTT0=
EXTT1=
EXTT2=
EXTT3=
EXTT4=
EXTT5=
EXTT6=
EXTT7=
EXTT8=
EXTT9=
EXTT10=
EXTT11=
EXTT12=
EXTT13=
EXTT14=
EXTT15=
EXTT16=
EXTT17=
EXTT18=
EXTT19=
EXTT20=
EXTT21=
EXTT22=
EXTT23=
EXTT24=
PLAYORDER=
